<?xml version="1.0" encoding="utf-8"?>
<!-- Generated by IcoMoon.io -->
<!DOCTYPE svg PUBLIC "-//W3C//DTD SVG 1.1//EN" "http://www.w3.org/Graphics/SVG/1.1/DTD/svg11.dtd">
<svg version="1.1" xmlns="http://www.w3.org/2000/svg" xmlns:xlink="http://www.w3.org/1999/xlink" width="512" height="512" viewBox="0 0 512 512">
<path fill="#d2d2d2" d="M256 512c-141.398 0-256-114.624-256-256s114.603-256 256-256c141.376 0 256 114.624 256 256s-114.624 256-256 256zM364.736 357.526v-97.13c0-14.506-10.262-26.602-23.894-29.44v-43.862c0-46.784-38.058-84.843-84.843-84.843s-84.843 38.059-84.843 84.843v43.862c-13.654 2.838-23.893 14.934-23.893 29.44v97.13c0 16.618 13.462 30.101 30.080 30.101h157.312c16.618 0 30.080-13.483 30.080-30.101v0zM215.424 187.094c0-22.379 18.197-40.576 40.576-40.576s40.576 18.197 40.576 40.576v43.2h-81.152v-43.2zM256 275.606c14.699 0 26.624 11.925 26.624 26.624 0 9.856-5.376 18.432-13.354 23.040v29.589h-26.56v-29.589c-7.958-4.608-13.334-13.184-13.334-23.040 0-14.699 11.925-26.624 26.624-26.624z"></path>
</svg>
